<svg width="1920" height="1080" viewBox="0 0 1920 1080" fill="none" xmlns="http://www.w3.org/2000/svg">
<g clip-path="url(#clip0_1_2)">
<rect width="1920" height="1080" fill="#389488"/>
<line x1="1054" y1="508" x2="1054" y2="-57" stroke="#FBFBFB" stroke-width="2"/>
<line x1="971" y1="508" x2="971" y2="-57" stroke="#FBFBFB" stroke-width="2"/>
<line x1="888" y1="508" x2="888" y2="-57" stroke="#FBFBFB" stroke-width="2"/>
<line x1="805" y1="508" x2="805" y2="-57" stroke="#FBFBFB" stroke-width="2"/>
<line x1="722" y1="508" x2="722" y2="-57" stroke="#FBFBFB" stroke-width="2"/>
<line x1="639" y1="508" x2="639" y2="-57" stroke="#FBFBFB" stroke-width="2"/>
<line x1="556" y1="508" x2="556" y2="-57" stroke="#FBFBFB" stroke-width="2"/>
<line x1="473" y1="508" x2="473" y2="-56.9999" stroke="#FBFBFB" stroke-width="2"/>
<line x1="1055" y1="509" x2="474" y2="509" stroke="#FBFBFB" stroke-width="2"/>
<line x1="1055" y1="434.632" x2="474" y2="434.633" stroke="#FBFBFB" stroke-width="2"/>
<line x1="1055" y1="360.265" x2="474" y2="360.265" stroke="#FBFBFB" stroke-width="2"/>
<line x1="1055" y1="285.897" x2="474" y2="285.897" stroke="#FBFBFB" stroke-width="2"/>
<line x1="1055" y1="211.53" x2="474" y2="211.53" stroke="#FBFBFB" stroke-width="2"/>
<line x1="1055" y1="137.162" x2="474" y2="137.162" stroke="#FBFBFB" stroke-width="2"/>
<line x1="1055" y1="62.7949" x2="474" y2="62.7949" stroke="#FBFBFB" stroke-width="2"/>
<line x1="1347" y1="697" x2="1347" y2="1262" stroke="#FBFBFB" stroke-width="2"/>
<line x1="1430" y1="697" x2="1430" y2="1262" stroke="#FBFBFB" stroke-width="2"/>
<line x1="1513" y1="697" x2="1513" y2="1262" stroke="#FBFBFB" stroke-width="2"/>
<line x1="1596" y1="697" x2="1596" y2="1262" stroke="#FBFBFB" stroke-width="2"/>
<line x1="1679" y1="697" x2="1679" y2="1262" stroke="#FBFBFB" stroke-width="2"/>
<line x1="1762" y1="697" x2="1762" y2="1262" stroke="#FBFBFB" stroke-width="2"/>
<line x1="1845" y1="697" x2="1845" y2="1262" stroke="#FBFBFB" stroke-width="2"/>
<line x1="1346" y1="696" x2="1927" y2="696" stroke="#FBFBFB" stroke-width="2"/>
<line x1="1346" y1="770.368" x2="1927" y2="770.368" stroke="#FBFBFB" stroke-width="2"/>
<line x1="1346" y1="844.735" x2="1927" y2="844.735" stroke="#FBFBFB" stroke-width="2"/>
<line x1="1346" y1="919.103" x2="1927" y2="919.103" stroke="#FBFBFB" stroke-width="2"/>
<line x1="1346" y1="993.47" x2="1927" y2="993.47" stroke="#FBFBFB" stroke-width="2"/>
<line x1="1346" y1="1067.84" x2="1927" y2="1067.84" stroke="#FBFBFB" stroke-width="2"/>
</g>
<defs>
<clipPath id="clip0_1_2">
<rect width="1920" height="1080" fill="white"/>
</clipPath>
</defs>
</svg>
