<svg width="823" height="755" viewBox="0 0 823 755" fill="none" xmlns="http://www.w3.org/2000/svg">
<path d="M-103.061 59.6184C-60.1364 8.54691 10.6357 -5.1314 84.5729 3.74117C158.485 12.6107 235.303 43.997 289.973 82.6973C343.817 120.812 356.41 188.171 367.71 257.726C368.114 260.212 368.516 262.7 368.919 265.19C374.135 297.463 379.388 329.963 388.707 359.826C398.75 392.007 413.537 421.21 438.165 443.859C461.569 465.382 491.4 475.903 523.938 481.278C552.754 486.037 583.785 486.773 614.447 487.5C618.391 487.593 622.329 487.687 626.255 487.788C660.752 488.682 694.352 490.224 723.572 498.136C752.76 506.04 777.502 520.28 794.363 546.534C825.109 594.405 828.053 658.684 811.796 719.668C795.54 780.644 760.134 838.137 714.447 872.375C689.18 891.311 659.901 897.259 628.443 896.577C596.961 895.895 563.388 888.577 529.573 881.054L527.035 880.488C494.098 873.156 460.98 865.784 429.582 864.422C397.357 863.024 366.845 867.951 340.102 885.806C318.564 900.186 308.459 922.465 303.969 948.403C299.572 973.801 300.535 1002.85 301.491 1031.68L301.549 1033.42C302.523 1062.87 303.375 1091.99 298.49 1116.93C293.612 1141.83 283.039 1162.42 261.259 1174.95C225.087 1195.77 187.835 1179.23 150.71 1150.82C132.983 1137.26 115.387 1121.08 98.0593 1105.14L95.7022 1102.97C77.6331 1086.35 59.8593 1070.15 42.6185 1057.72C14.3343 1037.34 -9.70374 1013.56 -32.7696 988.573C-41.7039 978.895 -50.5038 969.025 -59.3497 959.102C-73.3102 943.443 -87.3852 927.655 -102.283 912.297C-118.09 896.002 -137.647 881.454 -157.993 867.406C-164.542 862.885 -171.169 858.417 -177.782 853.96C-191.744 844.548 -205.641 835.18 -218.606 825.435C-256.825 796.708 -286.453 765.048 -284.995 720.402C-284.261 697.919 -273.386 680.692 -256.967 666.082C-240.518 651.446 -218.582 639.504 -195.856 627.602C-193.882 626.568 -191.903 625.535 -189.921 624.5C-169.124 613.644 -148.034 602.635 -130.417 589.498C-111.109 575.099 -95.8609 558.065 -89.7087 535.729C-78.8821 496.421 -80.8704 454.689 -88.257 412.328C-93.8681 380.148 -102.609 347.536 -111.246 315.314C-113.975 305.135 -116.692 294.994 -119.298 284.919C-141.045 200.824 -154.92 121.321 -103.061 59.6184Z" fill="#389488" stroke="black" stroke-width="2"/>
</svg>
