<svg width="583" height="567" viewBox="0 0 583 567" fill="none" xmlns="http://www.w3.org/2000/svg">
<line x1="582" y1="565" x2="582" y2="6.10789e-05" stroke="#FBFBFB" stroke-width="2"/>
<line x1="499" y1="565" x2="499" y2="6.10799e-05" stroke="#FBFBFB" stroke-width="2"/>
<line x1="416" y1="565" x2="416" y2="6.10799e-05" stroke="#FBFBFB" stroke-width="2"/>
<line x1="333" y1="565" x2="333" y2="9.15974e-05" stroke="#FBFBFB" stroke-width="2"/>
<line x1="250" y1="565" x2="250" y2="9.15974e-05" stroke="#FBFBFB" stroke-width="2"/>
<line x1="167" y1="565" x2="167" y2="9.15974e-05" stroke="#FBFBFB" stroke-width="2"/>
<line x1="83.9999" y1="565" x2="83.9999" y2="9.15974e-05" stroke="#FBFBFB" stroke-width="2"/>
<line x1="1" y1="565" x2="0.999976" y2="0.000122115" stroke="#FBFBFB" stroke-width="2"/>
<line x1="583" y1="566" x2="2" y2="566" stroke="#FBFBFB" stroke-width="2"/>
<line x1="583" y1="491.633" x2="2" y2="491.633" stroke="#FBFBFB" stroke-width="2"/>
<line x1="583" y1="417.265" x2="2" y2="417.265" stroke="#FBFBFB" stroke-width="2"/>
<line x1="583" y1="342.898" x2="2" y2="342.898" stroke="#FBFBFB" stroke-width="2"/>
<line x1="583" y1="268.53" x2="2" y2="268.53" stroke="#FBFBFB" stroke-width="2"/>
<line x1="583" y1="194.162" x2="2" y2="194.163" stroke="#FBFBFB" stroke-width="2"/>
<line x1="583" y1="119.795" x2="2" y2="119.795" stroke="#FBFBFB" stroke-width="2"/>
<line x1="583" y1="45.4274" x2="2" y2="45.4275" stroke="#FBFBFB" stroke-width="2"/>
</svg>
