<svg width="407" height="546" viewBox="0 0 407 546" fill="none" xmlns="http://www.w3.org/2000/svg">
<path d="M435.414 2.64069C445.616 13.4596 461.629 17.5884 479.564 18.7325C495.338 19.7387 512.801 18.4437 529.448 17.2091C531.75 17.0384 534.036 16.8689 536.299 16.7068C555.016 15.3663 572.141 14.5407 584.306 17.5942C590.367 19.1156 595.077 21.5733 598.147 25.3026C601.2 29.0117 602.738 34.1104 602.198 41.148C600.711 60.5632 590.744 74.9849 576.012 86.8703C561.249 98.7812 541.772 108.087 521.389 117.255C518.8 118.419 516.197 119.581 513.587 120.746C495.698 128.733 477.52 136.848 461.75 146.704C443.669 158.004 428.634 171.662 420.767 190.186C416.312 200.674 419.672 210.072 426.73 218.759C433.755 227.406 444.587 235.539 455.458 243.636L456.142 244.145C466.842 252.114 477.523 260.068 484.931 268.567C492.481 277.229 496.469 286.268 493.78 296.315C489.035 314.047 471.897 320.41 450.615 322.615C440.021 323.713 428.539 323.765 417.294 323.736C416.344 323.734 415.396 323.731 414.45 323.727C404.221 323.694 394.263 323.662 385.527 324.381C378.968 324.922 371.932 323.18 364.7 320.494C359.879 318.703 355.05 316.525 350.253 314.361C347.836 313.271 345.428 312.185 343.032 311.153C335.944 308.101 328.997 305.545 322.621 305.05C316.183 304.55 310.28 306.153 305.416 311.425C279.509 339.509 268.392 378.612 257.5 416.923C256.289 421.182 255.08 425.431 253.855 429.655C241.566 472.012 227.553 511.758 192.087 533.736C168.655 548.257 134.817 547.593 104.324 536.663C73.8319 525.734 47.0271 504.663 37.5347 478.802C25.1545 445.074 41.8786 411.609 60.987 377.157C62.1939 374.981 63.41 372.801 64.6281 370.618C73.0143 355.587 81.4951 340.386 87.7358 325.008C94.8881 307.383 99.1392 289.433 96.9346 271.096C95.5646 259.701 88.3532 251.088 78.6376 243.921C69.5225 237.196 58.0632 231.644 46.8525 226.212C46.1292 225.861 45.4068 225.511 44.6863 225.162C32.7409 219.363 21.2852 213.631 13.1531 206.643C5.06244 199.689 0.385158 191.604 1.73366 181.049C4.64543 158.258 23.7591 146.156 47.4089 136.216C54.1676 133.375 61.2031 130.746 68.292 128.097C73.6251 126.104 78.9884 124.1 84.2867 121.986C96.5514 117.092 108.314 111.663 117.924 104.596C128.863 96.5525 138.627 87.4817 148.284 78.3645C149.009 77.6802 149.733 76.9957 150.457 76.3114C159.392 67.8659 168.302 59.4432 178.087 51.7514C186.412 45.2066 195.636 39.9471 204.885 34.6727C207.523 33.1684 210.164 31.6628 212.786 30.1259C224.557 23.2261 235.909 15.7198 244.662 4.93335C257.639 -11.0569 267.441 -31.6205 276.118 -53.4053C280.344 -64.0146 284.31 -74.9334 288.247 -85.7697L288.568 -86.6529C292.612 -97.7844 296.63 -108.818 300.883 -119.36C309.394 -140.461 318.804 -159.496 331.119 -173.313C343.402 -187.093 358.557 -195.667 378.641 -195.913C387.191 -196.017 393.657 -193.835 398.579 -189.914C403.514 -185.983 406.991 -180.229 409.415 -173.026C414.277 -158.577 414.8 -138.626 414.626 -116.862C414.595 -112.94 414.541 -108.961 414.486 -104.949C414.24 -86.7714 413.984 -67.9099 415.774 -50.5721C417.958 -29.4183 423.203 -10.3079 435.414 2.64069Z" fill="#3D277B" stroke="black" stroke-width="2"/>
</svg>
