<svg width="475" height="383" viewBox="0 0 475 383" fill="none" xmlns="http://www.w3.org/2000/svg">
<path d="M354.617 249.592C371.474 235.135 380.844 215.569 386.601 193.721C391.989 173.271 394.234 150.731 396.458 128.405C396.608 126.896 396.758 125.388 396.909 123.881C399.299 100.045 401.907 76.6309 408.498 56.2215C415.082 35.8371 425.616 18.531 443.812 6.84079C449.623 3.10815 455.258 1.38004 460.765 1.23111C466.277 1.08203 471.724 2.51383 477.152 5.19675C488.04 10.5787 498.736 20.9341 509.525 33.3324C515.618 40.3352 521.671 47.9022 527.783 55.5441C532.522 61.4687 537.297 67.4383 542.154 73.2249C553.214 86.3989 564.602 98.4908 576.567 106.311C590.478 115.403 606.146 122.382 622.242 128.656C629.629 131.535 637.117 134.27 644.569 136.992C645.236 137.236 645.903 137.48 646.57 137.723C654.686 140.689 662.748 143.655 670.605 146.798C702.063 159.383 730.012 174.741 744.571 203.957C773.455 261.916 763.094 344.95 720.183 393.401C708.898 406.142 693.499 412.557 676.033 415.875C659.602 418.997 641.448 419.362 623.306 419.726C622.143 419.749 620.98 419.773 619.817 419.797C600.569 420.195 581.455 420.793 564.8 424.967C548.114 429.149 533.8 436.945 524.249 451.797C512.389 470.238 509.591 491.332 511.14 513.545C512.612 534.67 518.025 556.907 523.389 578.942C523.661 580.058 523.932 581.173 524.203 582.288C529.834 605.458 535.185 628.33 535.74 649.585C536.295 670.812 532.06 690.332 518.594 706.858C497.273 733.024 460.96 743.038 422.963 741.361C384.984 739.685 345.562 726.331 318.28 706.068C288.894 684.242 277.845 650.182 270.338 612.907C268.492 603.741 266.862 594.397 265.224 585.003L265.147 584.559C263.483 575.019 261.807 565.431 259.886 555.953C256.043 537 251.21 518.442 243.493 501.499C227.587 466.574 209.304 433.308 181.825 406.315C167.834 392.572 148.617 381.588 127.984 371.658C117.661 366.69 106.961 361.976 96.3634 357.309L96.1224 357.203C85.6009 352.571 75.1848 347.984 65.3104 343.231C45.39 333.643 27.792 323.43 16.0838 310.921C4.42457 298.465 -1.38163 283.752 2.21482 265.022C9.46697 227.252 44.3695 211.055 87.8002 203.931C118.129 198.956 152.278 198.455 183.489 197.998C196.944 197.801 209.853 197.612 221.674 197.075C233.437 196.542 245.238 201.407 256.981 208.669C266.337 214.455 275.556 221.696 284.618 228.814C286.932 230.632 289.236 232.441 291.53 234.217C302.753 242.904 313.744 250.787 324.273 254.491C329.555 256.349 334.766 257.173 339.863 256.496C344.97 255.817 349.899 253.638 354.617 249.592Z" fill="#E5222F" stroke="black" stroke-width="2"/>
</svg>
